<?xml version="1.0" encoding="UTF-8" standalone="no"?>
<svg
   width="200"
   height="200"
   viewBox="0 0 1448 1448"
   version="1.1"
   id="svg56"
   sodipodi:docname="app.svg"
   inkscape:version="1.2.2 (b0a8486541, 2022-12-01)"
   xmlns:inkscape="http://www.inkscape.org/namespaces/inkscape"
   xmlns:sodipodi="http://sodipodi.sourceforge.net/DTD/sodipodi-0.dtd"
   xmlns="http://www.w3.org/2000/svg"
   xmlns:svg="http://www.w3.org/2000/svg">
  <defs
     id="defs60" />
  <sodipodi:namedview
     id="namedview58"
     pagecolor="#ffffff"
     bordercolor="#000000"
     borderopacity="0.25"
     inkscape:showpageshadow="2"
     inkscape:pageopacity="0.0"
     inkscape:pagecheckerboard="0"
     inkscape:deskcolor="#d1d1d1"
     showgrid="false"
     inkscape:zoom="2.135"
     inkscape:cx="25.058548"
     inkscape:cy="118.03279"
     inkscape:window-width="1920"
     inkscape:window-height="1007"
     inkscape:window-x="1680"
     inkscape:window-y="0"
     inkscape:window-maximized="1"
     inkscape:current-layer="svg56" />
  <g
     id="g224"
     transform="matrix(1.1549553,0,0,1.1549553,-172.81913,-52.8512)">
    <g
       transform="matrix(1.0551812,0,0,1.0017279,16.16165,-115.67793)"
       id="g54">
      <path
         d="m 787.9,862.5 -146.7,391 q -0.2,0.5 -0.7,0.5 H 477.2 a 0.2,0.2 -80.3 0 1 -0.2,-0.3 l 76.3,-201.5 a 3.5,0.9 -68.1 0 0 0.2,-0.5 Q 689.7,686 825.8,320.3 q 0.2,-0.5 0.7,-0.4 70.6,18.9 141.1,37.8 9.7,2.6 19.1,6 55.3,19.9 110.5,39.9 c 70.5,25.5 142.1,65.5 182.7,131.1 50.8,82.2 32.9,181.4 -6.7,263.3 -18.8,38.8 -45,73.6 -80.3,98.8 -84,60.2 -194.2,41.8 -284.2,9.1 q -60.2,-22 -120.2,-43.7 a 0.5,0.5 0 0 0 -0.6,0.3 z m 394,-197.9 q 6.5,-53 -21.2,-96.3 c -23.5,-36.7 -62.8,-58.6 -102.7,-73 q -58,-21 -116.1,-41.9 -0.5,-0.2 -0.7,0.3 l -118,314.6 q -0.2,0.5 0.3,0.7 61,22.1 121.6,43.8 c 33.2,12 68.3,19.1 102.9,13.8 48.8,-7.4 85.5,-37.6 108,-80.9 13.1,-25.1 22.4,-52.7 25.9,-81.1 z"
         fill="#000000"
         id="path48" />
      <path
         d="M 447.7,1175.7 130.1,328.9 a 0.3,0.3 0 0 1 0.3,-0.4 H 295 a 0.3,0.3 0 0 1 0.3,0.2 l 239.4,642.6 a 0.3,0.3 0 0 1 -0.1,0.3 l -86.3,204.1 a 0.3,0.3 0 0 1 -0.6,0 z"
         fill="#000000"
         id="path50" />
      <path
         d="m 1129.4,1126 h -123.6 a 0.3,0.3 0 0 1 -0.3,-0.4 l 13.2,-54.7 a 0.3,0.3 0 0 1 0.3,-0.2 h 110.4 a 0.3,0.3 0 0 0 0.3,-0.3 v -93.7 a 0.3,0.3 0 0 1 0.2,-0.4 l 54.6,-21.4 a 0.3,0.3 0 0 1 0.4,0.3 v 115.2 a 0.3,0.3 0 0 0 0.4,0.3 h 123.8 a 0.3,0.3 0 0 1 0.3,0.4 l -8.4,54.6 a 0.3,0.3 0 0 1 -0.3,0.3 h -115.4 a 0.3,0.3 0 0 0 -0.4,0.3 l 0.1,125.9 a 0.3,0.3 0 0 1 -0.4,0.3 H 1130 a 0.3,0.3 0 0 1 -0.3,-0.3 v -125.9 a 0.3,0.3 0 0 0 -0.3,-0.3 z"
         fill="#1f8f56"
         id="path52" />
    </g>
  </g>
</svg>
